<?xml version="1.0" encoding="utf-8"?>
<!-- Generator: Adobe Illustrator 24.0.0, SVG Export Plug-In . SVG Version: 6.00 Build 0)  -->
<svg version="1.1" id="Layer_1" xmlns="http://www.w3.org/2000/svg" xmlns:xlink="http://www.w3.org/1999/xlink" x="0px" y="0px"
	 viewBox="0 0 2807 1604" style="enable-background:new 0 0 2807 1604;" xml:space="preserve">
<style type="text/css">
	.st0{fill:#FFFFFF;}
	.st1{fill:url(#SVGID_1_);}
</style>
<g>
	<path class="st0" d="M723.7,657.1h90c70.7,0,118.4,45.5,118.4,110.5s-47.7,110.5-118.4,110.5h-90V657.1z M812.4,857.9
		c58.7,0,96.6-37.3,96.6-90.3s-37.9-90.3-96.6-90.3H747v180.6L812.4,857.9L812.4,857.9z"/>
	<path class="st0" d="M992.4,657.1h23.4v221h-23.4V657.1z"/>
	<path class="st0" d="M1074.5,851.3l9.2-18c15.8,15.5,43.9,26.8,72.9,26.8c41.4,0,59.4-17.4,59.4-39.2
		c0-60.6-136.1-23.4-136.1-105.2c0-32.5,25.3-60.6,81.5-60.6c24.9,0,50.8,7.3,68.5,19.6l-7.9,18.6c-18.9-12.3-41.1-18.3-60.6-18.3
		c-40.4,0-58.4,18-58.4,40.1c0,60.6,136.1,24,136.1,104.5c0,32.5-25.9,60.3-82.4,60.3C1123.4,880,1090.9,868.3,1074.5,851.3z"/>
	<path class="st0" d="M1337.5,677.3h-77.7v-20.2h178.7v20.2h-77.7v200.8h-23.4L1337.5,677.3L1337.5,677.3z"/>
	<path class="st0" d="M1634.7,878.1l-50.5-71c-5.7,0.6-11.4,1-17.7,1h-59.4v70.1h-23.4V657.1h82.7c56.2,0,90.3,28.4,90.3,75.8
		c0,34.7-18.3,59-50.5,69.5l54,75.8L1634.7,878.1L1634.7,878.1z M1633.4,732.9c0-35.4-23.4-55.6-67.6-55.6h-58.7v110.8h58.7
		C1610,788.1,1633.4,767.6,1633.4,732.9z"/>
	<path class="st0" d="M1719.9,657.1h23.4v221h-23.4V657.1z"/>
	<path class="st0" d="M1797.9,767.6c0-67.3,51.5-115,121.6-115c40.7,0,73.6,14.8,95.1,41.7l-39.8,36c-13.9-16.7-30.9-25.9-52.1-25.9
		c-36.3,0-61.6,25.3-61.6,63.2s25.3,63.2,61.6,63.2c21.2,0,38.2-9.2,52.1-25.9l39.8,36c-21.5,26.8-54.3,41.7-95.1,41.7
		C1849.4,882.5,1797.9,834.9,1797.9,767.6z"/>
	<path class="st0" d="M2194.5,835.2H2101l-17.4,43h-63.8l97.6-221h61.6l97.9,221h-65.1L2194.5,835.2z M2176.2,789.1l-28.4-70.7
		l-28.4,70.7H2176.2z"/>
	<path class="st0" d="M2302.5,657.1h62.5v171.5h105.5v49.6h-168V657.1z"/>
	<path class="st0" d="M2503,657.1h62.5v171.5H2671v49.6h-168V657.1z"/>
</g>
<linearGradient id="SVGID_1_" gradientUnits="userSpaceOnUse" x1="43.9772" y1="545.3608" x2="876.2692" y2="1431.8176" gradientTransform="matrix(1 0 0 -1 0 1603.2756)">
	<stop  offset="7.066580e-03" style="stop-color:#44B444"/>
	<stop  offset="0.2264" style="stop-color:#60BA3C"/>
	<stop  offset="0.5585" style="stop-color:#84C231"/>
	<stop  offset="0.8283" style="stop-color:#9BC62A"/>
	<stop  offset="1" style="stop-color:#A3C828"/>
</linearGradient>
<path class="st1" d="M551.3,1028.5H116.8c-34.3,0-62.4-28.1-62.4-62.4V531.8c0-34.3,28.1-62.4,62.4-62.4h434.4
	c34.3,0,62.4,28.1,62.4,62.4v434.4C613.6,1000.5,585.6,1028.5,551.3,1028.5z"/>
<path class="st0" d="M588.6,783.5c-1-27.3-12.5-49.2-34.2-65.3c-3.7-2.7-7.7-5-11.5-7.1c-0.4-0.2-0.8-0.5-1.2-0.7
	c12.5-9.8,20.3-23.5,22.3-39.1c2.1-17-3.1-34-14.4-46.7c-21.4-23.9-58.3-26.1-82.3-4.9c-11.8,10.4-18.4,23.3-19.6,38.5
	c-1.7,21.1,5.9,38.6,22.7,52.1c-0.8,0.4-1.5,0.8-2.3,1.2c-9.2,4.8-8.9,10.5-6.9,14.5c1.2,2.5,3,4.2,5.4,5c3,1,6.5,0.4,10.7-1.8
	c15.2-7.8,32.6-9,48.8-3.5c16.4,5.6,29.5,17.3,36.8,33c6.1,12.9,5.9,26.4,5.8,40.8c0,1.6,0,3.2,0,4.8H545c-31.5,0-77.1,0-100,0
	c0-68.9,0-137.9,0-206.8c0-22.6-14.6-37.2-37.2-37.2c-49.1,0-98.2,0-147.3,0c-23.1,0-37.4,14.3-37.4,37.3c0,35.6,0,71.3,0,106.9
	v99.7c-23,0-68.5,0-100,0H99.4c0-1.6,0-3.2,0-4.8c-0.1-14.3-0.3-27.9,5.8-40.8c7.3-15.7,20.4-27.4,36.8-33
	c16.3-5.5,33.6-4.3,48.8,3.5c4.2,2.2,7.7,2.7,10.7,1.8c2.3-0.8,4.1-2.5,5.4-5c1.9-4,2.3-9.7-6.9-14.5c-0.8-0.4-1.5-0.8-2.3-1.2
	c16.8-13.5,24.4-31,22.7-52.1c-1.2-15.1-7.8-28.1-19.6-38.5c-24-21.2-60.9-19-82.3,4.9c-11.2,12.6-16.5,29.6-14.4,46.7
	c1.9,15.5,9.8,29.2,22.3,39.1c-0.4,0.2-0.8,0.5-1.2,0.7c-3.9,2.2-7.9,4.4-11.5,7.2c-21.8,16.1-33.3,38-34.2,65.3
	c-0.3,7.5-0.2,15.1-0.1,22.5c0,2.5,0,4.9,0.1,7.4c0,7,4.1,10.9,11,10.9c29.2,0,99.2,0,132.6,0v12.3c0,20.4,0,40.8,0,61.2
	c0,22.5,14.5,37,37,37c23.9,0,47.9,0,71.8,0c25.3,0,50.6,0,75.9,0c22.6,0,37.2-14.6,37.2-37.1v-73.3c33.3,0,103.4,0,132.6,0
	c7,0,11-4,11-10.9c0-2.5,0-4.9,0.1-7.4C588.8,798.6,588.9,791,588.6,783.5z M506,625.2C506,625.2,506,625.2,506,625.2
	c21.2,0,38.4,17.3,38.4,38.5c0,10.4-4,20.1-11.1,27.2c-7.3,7.3-17.2,11.3-28,11.3c0,0-0.1,0-0.1,0c-20.9-0.1-37.8-17.3-37.8-38.5
	C467.4,642.4,484.7,625.2,506,625.2z M388,595.9c-0.1,2.1-2.3,2.6-4.1,2.6c-5.3,0-10.8,0-16,0c-2.2,0-4.4,0-6.5,0h-20.2
	c-18.5,0-37,0-55.5,0c-5.1,0-5.8-0.6-5.8-5.7c0-3.7,0-7.4,0-11.2v-2.4h108.2c0,1,0,1.9,0,2.9C388.2,586.8,388.2,591.3,388,595.9z
	 M409.4,916c-50.2,0-101,0-150.8,0c-10.1,0-16.8-6.7-16.8-16.7c0-102.9,0-205.1,0-303.6c0-9.7,6.8-16.5,16.5-16.6c0.9,0,1.9,0,2.9,0
	c0,1,0,2.1,0,3.1c0,4.3,0,8.3,0,12.4c0.1,13.1,9.6,22.6,22.5,22.6c34.1,0.1,68,0.1,100.8,0c12.8,0,22.2-9.4,22.4-22.2
	c0.1-4.2,0-8.5,0-12.6c0-1,0-2.1,0-3.1c5-0.7,9.6,0.5,13.2,3.3c4,3.2,6.2,8,6.2,13.7c0,95.9,0,195,0,302.8
	C426.3,909.4,419.7,916,409.4,916z M162.1,625.2c21.3,0,38.6,17.2,38.6,38.5c0.1,21.2-16.9,38.5-37.8,38.5c0,0-0.1,0-0.1,0
	c-10.7,0-20.7-4-28-11.3c-7.2-7.1-11.1-16.8-11.1-27.2C123.7,642.5,140.9,625.2,162.1,625.2C162.1,625.2,162.1,625.2,162.1,625.2z"
	/>
<g>
	<circle class="st0" cx="454.4" cy="979.4" r="17.6"/>
	<g>
		<circle class="st0" cx="504.7" cy="979.4" r="17.6"/>
		<circle class="st0" cx="557.3" cy="979.4" r="17.6"/>
	</g>
</g>
</svg>
